<!-- by TradingView --><svg xmlns="http://www.w3.org/2000/svg" width="18" height="18" viewBox="0 0 18 18"><path fill="#F0F3FA" d="M0 0h18v18H0z"/><path d="M11.8 10v1.15a3.6 3.6 0 0 1-2.3.85v-1.13c1 0 1.67-.58 1.89-.87h.4Z" fill="#2CCBEB"/><path d="m3.27 7.93-.92-.43A2.17 2.17 0 0 1 4.48 6a1.93 1.93 0 0 1 2.07 1.93V12H5.5v-.76c-.39.55-1.13.68-1.45.71v-1.02c1.04 0 1.4-1.02 1.45-1.51V8.25c0-.11-.04-1.13-1.05-1.13-.81 0-1.11.5-1.18.81Z" fill="#314FFC"/><path d="M3.75 12c1.1 0 1.7-.53 1.85-.8l-.25-1.11c-.38.73-1.23.82-1.6.78V12Z" fill="url(#a1tiznyy5)"/><path d="M3.75 10.87V12C2.44 12 2.04 10.82 2 10.23 2 8.57 3.9 8.2 4.8 8.25h6.3s.17.8.35 1.12H5.14c-1.14 0-2.07.06-2.07.77 0 .56.45.72.68.73Z" fill="url(#b1tiznyy5)"/><path d="M11.61 9.37h-.17l-.7-1.04c0-1-.93-1.2-1.39-1.2V6c2.22 0 2.45 2.15 2.45 2.59 0 .35-.13.67-.19.78Z" fill="url(#c1tiznyy5)"/><path d="M9.35 6c0 .34.01 1.11 0 1.12-1.23 0-1.42 1.12-1.4 1.72 0 1.56 1.01 1.99 1.57 2.03V12C7.24 12 6.88 9.89 6.9 8.84 6.9 6.58 8.48 6 9.35 6Z" fill="url(#d1tiznyy5)"/><path d="M12.23 10h-.5l-.07 1c.19.36.92.98 2.32.98 1.41 0 1.92-1.02 2-1.53.08-.5-.06-1.6-1.32-1.89-1.57-.36-1.55-.78-1.55-.88 0-.1.13-.62.88-.62.6 0 .91.57 1 .86l.93-.32A1.9 1.9 0 0 0 13.98 6c-1.68 0-1.96 1.28-1.96 1.68 0 .4.2 1.36 1.5 1.64 1.3.28 1.43.75 1.43.89 0 .13-.08.66-1.04.66-.77 0-1.44-.59-1.68-.87Z" fill="url(#e1tiznyy5)"/><defs><linearGradient id="a1tiznyy5" x1="3.92" y1="11.4" x2="5.52" y2="10.95" gradientUnits="userSpaceOnUse"><stop stop-color="#675FFD"/><stop offset="1" stop-color="#314FFC"/></linearGradient><linearGradient id="b1tiznyy5" x1="3.74" y1="11.82" x2="3.7" y2="9.69" gradientUnits="userSpaceOnUse"><stop offset=".44" stop-color="#675FFD"/><stop offset="1" stop-color="#9E6FFF"/></linearGradient><linearGradient id="c1tiznyy5" x1="11.2" y1="8.95" x2="9.87" y2="6.75" gradientUnits="userSpaceOnUse"><stop stop-color="#9E6FFF"/><stop offset="1" stop-color="#8980FB"/></linearGradient><linearGradient id="d1tiznyy5" x1="8.18" y1="6.93" x2="8.8" y2="11.84" gradientUnits="userSpaceOnUse"><stop stop-color="#8980FB"/><stop offset=".86" stop-color="#2CCBEB"/></linearGradient><linearGradient id="e1tiznyy5" x1="13.34" y1="11.12" x2="14.37" y2="6.38" gradientUnits="userSpaceOnUse"><stop stop-color="#29CEEB"/><stop offset=".27" stop-color="#2BC79F"/><stop offset="1" stop-color="#2BBF37"/></linearGradient></defs></svg>