<!-- by TradingView --><svg xmlns="http://www.w3.org/2000/svg" width="18" height="18" viewBox="0 0 18 18"><path fill="#F0F3FA" d="M0 0h18v18H0z"/><path fill-rule="evenodd" d="M10 11.29c-.37.46-1 .71-1.68.71A2.95 2.95 0 0 1 6 11.03l1-1.1c.37.38.76.58 1.18.58.37 0 .57-.18.57-.43v-.01c0-.26-.21-.48-.66-.48h-.7l-.23-.75L8.26 8H6.42V6.5h6.1c.9 0 1.48.24 1.84.63.3.33.47.74.47 1.3v.02c0 .8-.39 1.36-1 1.68L15 12h-1.95l-.97-1.72h-.41V12H10v-.71Zm0-2.15c-.2-.23-.5-.39-.87-.49l.87-.7v1.2ZM11.67 8v.97h.72c.34 0 .61-.1.61-.47 0-.35-.2-.5-.6-.5h-.73Z" fill="#215B4A"/><path d="M4.48 10.34c.33-.5.86-.26.99.35.18.89 1.03 1 1.03 1s-.62.6-1.54.14c-.6-.3-.7-1.16-.48-1.49Z" fill="#068CA0"/><path d="M5.8 7.16c-.33.49-.87.26-.99-.35-.18-.89-1.03-1-1.03-1s.62-.59 1.53-.14c.6.3.71 1.16.49 1.49ZM4.52 7.14c.1.6-.43.82-.94.47-.73-.49-1.42.05-1.42.05s.04-.86 1-1.22c.63-.23 1.29.3 1.36.7Z" fill="#A1D64A"/><path d="M3.6 8.07c.48.34.25.89-.34 1.02-.86.18-.97 1.07-.97 1.07s-.56-.64-.13-1.6c.29-.61 1.12-.73 1.44-.5Z" fill="#4CC084"/><path d="M3.59 9.39c.57-.1.79.44.45.97-.47.75.05 1.46.05 1.46s-.84-.04-1.18-1.02c-.22-.65.29-1.34.68-1.41Z" fill="#068CA0"/></svg>