<!-- by TradingView --><svg xmlns="http://www.w3.org/2000/svg" width="18" height="18"><path fill="#F0F3FA" d="M0 0h18v18H0z"/><path d="M16.07 9.95a4.32 4.32 0 01-1.02.17c-1.15.03-1.63-.5-1.72-.76-.5.67-1.06.79-1.31.79-.95 0-1.05-.77-.95-1.12-.75.62-1.57 1-1.89 1.12.01 1.23-.8 1.53-1.2 1.52-.3 0-.88-.16-.82-.75.06-.59.84-.87 1.23-.94L7.7 8.76c-.72.76-2.65 2.16-3.53 2.16-.84 0-1.17-.56-1.18-1.2 0-.64.51-1.88.7-2.18-.15-.04-.28-.12-.3-.24 0-.1.14-.3.68-.3a.28.28 0 01.28.3.3.3 0 01-.04.16c.09.12.05.29 0 .37-.22.51-.53 1.48-.54 2-.02.41.36.51.54.5 1.01.09 2.57-1.2 3.22-1.85a1.53 1.53 0 01-.15-.68c.07-.7.56-.72.73-.72.19 0 .54.12.54.5 0 .3-.23.57-.35.67.07.14.26.5.44.78.18.29.33.64.39.78.48-.2 1.63-.8 2.32-1.56.69-.77 1.65-.94 2.05-.91.07 0 .23.02.23.16 0 .15-.15.18-.23.18-1.17.1-1.74.93-1.8 1.46-.03.42.25.47.47.47.86-.02 1.15-1.05 1.2-1.31.06-.2.16-.22.26-.21.12 0 .19.11.15.29l-.06.53c-.03.75.72.88 1.1.85a4.19 4.19 0 001.28-.28 7.09 7.09 0 01-.05.47z" fill="url(#anuqefyz0)"/><defs><linearGradient id="anuqefyz0" x1="3" y1="9.14" x2="16.11" y2="9.17" gradientUnits="userSpaceOnUse"><stop stop-color="#09F"/><stop offset=".89" stop-color="#2D155B"/><stop offset="1" stop-color="#F44D04"/></linearGradient></defs></svg>